<?xml version="1.0" encoding="utf-8"?>
<svg version="1.1" id="Layer_1" xmlns="http://www.w3.org/2000/svg" xmlns:xlink="http://www.w3.org/1999/xlink" x="0px" y="0px"
	 width="64px" height="64px" viewBox="0 0 200 200" style="enable-background:new 0 0 200 200;" xml:space="preserve">
<rect width="200" height="200" rx="40" fill="#1D3D48"/>
<path d="M57.5169 124.54C54.1461 123.18 51.1966 121.396 48.7528 118.931C46.2247 116.552 44.3708 113.662 43.0225 110.178C41.6742 106.694 41 102.785 41 98.4504V71.6809H51.8708V99.0453C51.8708 101.51 52.2921 103.719 53.1348 105.844C53.9775 107.968 55.073 109.838 56.5899 111.368C58.0225 112.982 59.8764 114.172 61.8989 115.107C63.9214 116.042 66.2809 116.467 68.7247 116.467C71.1686 116.467 73.4438 116.042 75.5506 115.107C77.573 114.257 79.3427 112.982 80.8596 111.368C82.2922 109.753 83.4719 107.968 84.3146 105.844C85.1573 103.719 85.5787 101.425 85.5787 99.0453V71.6809H96.4495V98.3654C96.4495 102.7 95.7753 106.609 94.427 110.093C93.0787 113.577 91.1405 116.467 88.6966 118.931C86.2528 121.311 83.3034 123.18 79.9326 124.54C76.5618 125.9 72.7697 126.495 68.7247 126.495C64.5955 126.495 60.8876 125.9 57.5169 124.54Z" fill="#C3E8E8"/>
<path d="M124.592 124.539C121.39 123.179 118.778 121.14 116.755 118.42V144H106.559V72.1048H116.839V80.0081C118.862 77.2037 121.474 75.0792 124.761 73.4645C127.963 71.8498 131.418 71 135.126 71C138.665 71 142.036 71.6799 145.154 72.9546C148.356 74.3143 151.137 76.1839 153.581 78.5634C156.025 81.0279 157.963 83.9173 159.396 87.3166C160.828 90.7159 161.587 94.5402 161.587 98.7043C161.587 102.868 160.828 106.693 159.396 110.092C157.963 113.491 155.941 116.466 153.497 118.93C151.053 121.395 148.188 123.264 144.986 124.539C141.783 125.899 138.497 126.494 135.042 126.494C131.334 126.664 127.879 125.899 124.592 124.539ZM140.435 115.446C142.542 114.511 144.396 113.236 145.997 111.622C147.598 110.007 148.778 108.052 149.705 105.843C150.547 103.633 151.053 101.254 151.053 98.7893C151.053 96.3248 150.632 93.9453 149.705 91.7357C148.778 89.5262 147.598 87.5716 145.997 85.9569C144.396 84.3423 142.542 83.0675 140.435 82.1327C138.328 81.1979 136.053 80.773 133.609 80.773C131.165 80.773 128.806 81.2829 126.699 82.2177C124.592 83.1525 122.738 84.4272 121.137 86.0419C119.536 87.6566 118.356 89.6112 117.429 91.8207C116.587 94.0303 116.081 96.3248 116.081 98.7893C116.081 101.254 116.502 103.633 117.429 105.843C118.272 108.052 119.536 110.007 121.137 111.622C122.738 113.236 124.592 114.511 126.699 115.446C128.806 116.381 131.165 116.891 133.609 116.891C136.053 116.806 138.328 116.381 140.435 115.446Z" fill="#C3E8E8"/>
</svg>
